<?xml version="1.0" standalone="no"?>
<!DOCTYPE svg PUBLIC "-//W3C//DTD SVG 20010904//EN"
 "http://www.w3.org/TR/2001/REC-SVG-20010904/DTD/svg10.dtd">
<svg version="1.0" xmlns="http://www.w3.org/2000/svg"
 width="248.000000pt" height="41.000000pt" viewBox="0 0 248.000000 41.000000"
 preserveAspectRatio="xMidYMid meet">

<g transform="translate(0.000000,41.000000) scale(0.100000,-0.100000)"
fill="#000000" stroke="none">
<path d="M153 384 c-28 -22 -37 -24 -67 -15 -33 9 -37 7 -61 -25 l-26 -34 54
-147 c43 -117 59 -148 77 -155 18 -6 26 -4 37 12 12 16 18 18 34 9 16 -8 25
-7 38 5 16 14 19 14 33 0 12 -13 20 -14 36 -5 18 9 23 8 32 -9 8 -16 17 -19
33 -14 29 9 26 4 52 76 13 35 37 100 53 144 l31 81 -26 36 c-23 33 -27 34 -60
25 -30 -8 -39 -6 -68 17 -34 25 -36 25 -66 9 -30 -15 -35 -15 -66 0 -18 9 -35
16 -36 16 -1 0 -17 -12 -34 -26z"/>
<path d="M834 300 c-39 -16 -74 -68 -74 -112 0 -89 77 -146 168 -122 16 5 22
14 22 36 0 25 -2 27 -19 18 -55 -29 -121 7 -121 66 0 57 67 92 121 64 16 -9
19 -7 19 15 0 38 -62 57 -116 35z"/>
<path d="M1042 293 c-85 -41 -82 -183 3 -219 66 -27 125 -12 125 32 0 21 -3
23 -19 14 -58 -30 -121 4 -121 65 0 55 31 79 91 72 44 -5 49 -4 49 14 0 37
-72 50 -128 22z"/>
<path d="M1265 296 c-56 -24 -82 -83 -65 -147 18 -67 82 -100 151 -80 98 30
108 188 14 227 -42 17 -61 17 -100 0z m95 -56 c45 -45 13 -130 -48 -130 -39 0
-66 32 -66 77 0 63 71 96 114 53z"/>
<path d="M2062 293 c-91 -45 -80 -195 17 -224 49 -15 86 -6 122 30 55 56 44
150 -23 191 -40 24 -72 25 -116 3z m107 -59 c12 -15 21 -37 21 -49 0 -12 -9
-34 -21 -49 -42 -53 -119 -21 -119 49 0 70 77 102 119 49z"/>
<path d="M570 193 c-23 -60 -44 -114 -47 -121 -3 -7 4 -12 20 -12 18 0 28 8
37 30 11 27 17 30 56 30 38 0 45 -4 59 -30 14 -27 55 -43 55 -22 0 4 -19 58
-42 120 -40 105 -44 112 -69 112 -26 0 -30 -8 -69 -107z m88 0 c11 -32 10 -33
-20 -33 -23 0 -29 3 -24 16 3 9 9 27 12 41 8 28 17 21 32 -24z"/>
<path d="M1470 179 c0 -119 0 -120 23 -117 19 3 22 10 25 51 2 26 7 47 13 47
5 0 23 -22 40 -50 23 -38 37 -50 55 -50 30 0 30 5 -4 59 l-28 44 23 23 c28 28
30 67 3 94 -16 16 -33 20 -85 20 l-65 0 0 -121z m110 66 c19 -23 4 -45 -30
-45 -27 0 -30 3 -30 30 0 25 4 30 24 30 13 0 29 -7 36 -15z"/>
<path d="M1680 179 l0 -121 63 7 c34 4 70 11 79 16 35 19 58 61 58 106 0 38
-5 50 -34 79 -32 32 -38 34 -100 34 l-66 0 0 -121z m124 60 c52 -41 19 -129
-50 -129 -23 0 -24 3 -24 75 0 72 1 75 24 75 13 0 35 -9 50 -21z"/>
<path d="M1912 183 c3 -114 4 -118 26 -121 22 -3 22 -2 22 117 l0 121 -25 0
-26 0 3 -117z"/>
<path d="M2270 180 c0 -120 0 -121 23 -118 20 3 22 9 25 81 l3 79 51 -74 c56
-79 64 -88 91 -88 15 0 17 12 17 120 l0 120 -25 0 c-24 0 -25 -2 -25 -77 l0
-76 -53 74 c-40 56 -59 75 -80 77 l-27 3 0 -121z"/>
</g>
</svg>
