<?xml version="1.0" standalone="no"?>
<!DOCTYPE svg PUBLIC "-//W3C//DTD SVG 20010904//EN"
 "http://www.w3.org/TR/2001/REC-SVG-20010904/DTD/svg10.dtd">
<svg version="1.0" xmlns="http://www.w3.org/2000/svg"
 width="146.000000pt" height="35.000000pt" viewBox="0 0 146.000000 35.000000"
 preserveAspectRatio="xMidYMid meet">

<g transform="translate(0.000000,35.000000) scale(0.100000,-0.100000)"
fill="#000000" stroke="none">
<path d="M1300 225 c0 -77 4 -125 10 -125 6 0 10 23 10 51 0 76 21 109 73 109
34 0 47 -29 47 -106 0 -33 4 -54 11 -54 8 0 10 25 7 76 -3 60 -7 79 -23 90
-25 18 -65 18 -93 -2 -22 -15 -22 -15 -22 35 0 28 -4 51 -10 51 -6 0 -10 -48
-10 -125z"/>
<path d="M710 330 c0 -5 14 -10 30 -10 l30 0 0 -160 c0 -100 4 -160 10 -160 6
0 10 60 10 160 l0 160 30 0 c17 0 30 5 30 10 0 6 -30 10 -70 10 -40 0 -70 -4
-70 -10z"/>
<path d="M0 190 c0 -53 4 -90 10 -90 6 0 10 23 10 51 0 73 22 109 67 109 31 0
43 -28 43 -99 0 -34 4 -61 10 -61 6 0 10 26 10 58 0 66 19 102 54 102 36 0 46
-19 46 -92 0 -54 3 -68 15 -68 29 0 14 152 -17 172 -23 14 -65 8 -83 -12 l-18
-20 -14 20 c-17 24 -60 26 -91 4 -20 -14 -22 -14 -22 0 0 9 -4 16 -10 16 -6 0
-10 -37 -10 -90z"/>
<path d="M343 256 c-22 -19 -28 -32 -28 -66 0 -75 85 -125 143 -84 12 8 22 10
22 5 0 -6 7 -11 15 -11 12 0 15 17 15 90 0 73 -3 90 -15 90 -8 0 -15 -5 -15
-10 0 -7 -6 -7 -19 0 -35 18 -88 12 -118 -14z m117 -16 c25 -25 26 -81 3 -103
-47 -41 -123 -10 -123 50 0 61 78 95 120 53z"/>
<path d="M560 190 c0 -104 16 -121 22 -24 5 74 20 94 70 94 35 0 48 -28 48
-106 0 -33 4 -54 11 -54 8 0 10 25 7 76 -3 60 -7 79 -23 90 -25 18 -65 18 -93
-2 -20 -14 -22 -14 -22 0 0 9 -4 16 -10 16 -6 0 -10 -37 -10 -90z"/>
<path d="M887 269 c-29 -17 -49 -68 -43 -105 14 -72 111 -100 164 -47 33 33
14 44 -24 14 -34 -26 -54 -26 -88 0 -48 37 -35 49 54 49 79 0 80 0 80 25 0 38
-45 75 -89 75 -20 0 -44 -5 -54 -11z m91 -25 c41 -28 28 -44 -37 -44 -33 0
-62 4 -66 9 -7 12 42 51 64 51 9 0 27 -7 39 -16z"/>
<path d="M1117 265 c-50 -28 -62 -97 -24 -140 31 -37 102 -46 137 -17 31 25
20 40 -12 18 -54 -38 -122 -5 -122 59 0 64 68 97 122 59 28 -19 42 -10 20 12
-22 23 -88 27 -121 9z"/>
<path d="M850 29 c0 -26 3 -30 23 -27 14 2 22 10 22 22 0 10 -10 22 -22 27
-21 8 -23 5 -23 -22z m40 -4 c0 -8 -7 -15 -15 -15 -8 0 -15 7 -15 15 0 8 7 15
15 15 8 0 15 -7 15 -15z"/>
<path d="M1232 35 c0 -17 2 -22 5 -12 2 9 2 23 0 30 -3 6 -5 -1 -5 -18z"/>
<path d="M914 35 c-4 -9 -2 -21 4 -27 15 -15 44 -1 40 19 -4 23 -36 29 -44 8z
m33 -1 c-3 -3 -12 -4 -19 -1 -8 3 -5 6 6 6 11 1 17 -2 13 -5z m0 -20 c-3 -3
-12 -4 -19 -1 -8 3 -5 6 6 6 11 1 17 -2 13 -5z"/>
<path d="M1034 36 c-8 -20 3 -36 24 -35 14 0 13 2 -3 9 -19 8 -19 9 3 9 14 1
22 6 20 14 -7 18 -37 21 -44 3z m33 -2 c-3 -3 -12 -4 -19 -1 -8 3 -5 6 6 6 11
1 17 -2 13 -5z"/>
<path d="M1174 35 c-4 -9 -2 -21 4 -27 15 -15 44 -1 40 19 -4 23 -36 29 -44 8z
m36 -10 c0 -8 -7 -15 -15 -15 -8 0 -15 7 -15 15 0 8 7 15 15 15 8 0 15 -7 15
-15z"/>
<path d="M1332 25 c0 -17 2 -22 5 -12 2 9 2 23 0 30 -3 6 -5 -1 -5 -18z"/>
<path d="M1354 35 c-4 -9 -2 -21 4 -27 15 -15 44 -1 40 19 -4 23 -36 29 -44 8z
m36 -10 c0 -8 -7 -15 -15 -15 -8 0 -15 7 -15 15 0 8 7 15 15 15 8 0 15 -7 15
-15z"/>
<path d="M1410 42 c0 -4 9 -8 19 -8 11 0 17 4 15 8 -3 4 -12 8 -20 8 -8 0 -14
-4 -14 -8z"/>
<path d="M1277 20 c-3 -11 -1 -20 4 -20 5 0 9 9 9 20 0 11 -2 20 -4 20 -2 0
-6 -9 -9 -20z"/>
</g>
</svg>
